<svg width="21" height="21" viewBox="0 0 21 21" xmlns="http://www.w3.org/2000/svg">
<path d="M11.2984 10.4941L16.3239 5.47361C16.5587 5.239 16.5587 4.91056 16.3239 4.67595C16.089 4.44135 15.7603 4.44135 15.5254 4.67595L10.5 9.69648L5.47456 4.67595C5.23973 4.44135 4.91096 4.44135 4.67613 4.67595C4.44129 4.91056 4.44129 5.239 4.67613 5.47361L9.70157 10.4941L4.67613 15.5147C4.44129 15.7493 4.44129 16.0777 4.67613 16.3123C4.77006 16.4062 4.91096 16.5 5.05186 16.5C5.19276 16.5 5.33366 16.4531 5.42759 16.3123L10.5 11.2918L15.5254 16.3123C15.6194 16.4062 15.7603 16.5 15.9012 16.5C16.0421 16.5 16.183 16.4531 16.2769 16.3123C16.5117 16.0777 16.5117 15.7493 16.2769 15.5147L11.2984 10.4941Z" />
</svg>
